<?xml version="1.0" encoding="UTF-8" standalone="no"?>
<svg
   xmlns:dc="http://purl.org/dc/elements/1.1/"
   xmlns:cc="http://creativecommons.org/ns#"
   xmlns:rdf="http://www.w3.org/1999/02/22-rdf-syntax-ns#"
   xmlns:svg="http://www.w3.org/2000/svg"
   xmlns="http://www.w3.org/2000/svg"
   viewBox="0 0 793.70135 793.70135"
   height="793.70135"
   width="793.70135"
   xml:space="preserve"
   id="svg2"
   version="1.1"><metadata
     id="metadata8"><rdf:RDF><cc:Work
         rdf:about=""><dc:format>image/svg+xml</dc:format><dc:type
           rdf:resource="http://purl.org/dc/dcmitype/StillImage" /></cc:Work></rdf:RDF></metadata><defs
     id="defs6"><clipPath
       id="clipPath22"
       clipPathUnits="userSpaceOnUse"><path
         id="path20"
         d="m 200.808,261.058 h 45.872 l 46.821,101.928 22.923,50.004 -22.923,50.003 z" /></clipPath><linearGradient
       id="linearGradient40"
       spreadMethod="pad"
       gradientTransform="matrix(149.4362,-149.4362,149.4362,149.4362,231,389.67969)"
       gradientUnits="userSpaceOnUse"
       y2="0"
       x2="1"
       y1="0"
       x1="0"><stop
         id="stop28"
         offset="0"
         style="stop-opacity:1;stop-color:#26a9e0" /><stop
         id="stop30"
         offset="0.00357057"
         style="stop-opacity:1;stop-color:#26a9e0" /><stop
         id="stop32"
         offset="0.507177"
         style="stop-opacity:1;stop-color:#1b75bb" /><stop
         id="stop34"
         offset="0.96140404"
         style="stop-opacity:1;stop-color:#262261" /><stop
         id="stop36"
         offset="0.961722"
         style="stop-opacity:1;stop-color:#262261" /><stop
         id="stop38"
         offset="1"
         style="stop-opacity:1;stop-color:#262261" /></linearGradient><clipPath
       id="clipPath50"
       clipPathUnits="userSpaceOnUse"><path
         id="path48"
         d="M 0,595.276 H 595.276 V 0 H 0 Z" /></clipPath></defs><g
     transform="matrix(1.3333333,0,0,-1.3333333,0,793.70133)"
     id="g10"><g
       transform="translate(323.3555,398.021)"
       id="g12"><path
         id="path14"
         style="fill:#414042;fill-opacity:1;fill-rule:nonzero;stroke:none"
         d="m 0,0 -22.932,-50.09 39.886,-86.872 h 45.871 z" /></g><g
       id="g16"><g
         clip-path="url(#clipPath22)"
         id="g18"><g
           id="g24"><g
             id="g26"><path
               id="path42"
               style="fill:url(#linearGradient40);stroke:none"
               d="m 200.808,261.058 h 45.872 l 46.821,101.928 22.923,50.004 -22.923,50.003 z" /></g></g></g></g><g
       id="g44"><g
         clip-path="url(#clipPath50)"
         id="g46"><g
           transform="translate(132.5405,208.2373)"
           id="g52"><path
             id="path54"
             style="fill:#414042;fill-opacity:1;fill-rule:nonzero;stroke:none"
             d="m 0,0 c 1.6,0 3.065,0.34 4.4,1.021 1.332,0.681 2.483,1.581 3.453,2.698 0.97,1.118 1.746,2.395 2.327,3.83 0.582,1.434 0.873,2.93 0.873,4.485 0,1.507 -0.291,2.991 -0.873,4.449 -0.581,1.459 -1.357,2.736 -2.327,3.83 C 6.883,21.407 5.732,22.295 4.4,22.975 3.065,23.655 1.6,23.996 0,23.996 H -10.398 V 0 Z M 18.397,6.617 C 17.718,4.437 16.712,2.472 15.379,0.728 14.045,-1.017 12.409,-2.498 10.471,-3.709 10.373,-3.805 10.253,-3.878 10.107,-3.926 9.962,-3.975 9.841,-4.048 9.744,-4.144 l 9.38,-18.47 H 10.907 L 2.691,-6.545 C 2.109,-6.641 1.527,-6.714 0.946,-6.762 0.364,-6.811 -0.267,-6.835 -0.945,-6.835 h -9.526 v -15.779 h -7.78 v 53.445 h 17.306 c 2.181,0 4.229,-0.279 6.145,-0.836 1.914,-0.558 3.671,-1.322 5.271,-2.29 3.927,-2.473 6.568,-5.94 7.926,-10.399 0.048,-0.243 0.097,-0.46 0.146,-0.654 0.047,-0.194 0.12,-0.413 0.218,-0.654 v -0.364 c 0.096,-0.244 0.156,-0.509 0.182,-0.799 0.023,-0.292 0.059,-0.583 0.108,-0.873 v -0.073 c 0.048,-0.291 0.073,-0.582 0.073,-0.873 V 12.07 11.999 11.854 10.98 c 0,-0.29 -0.025,-0.581 -0.073,-0.873 V 9.963 C 19.002,9.671 18.966,9.392 18.943,9.126 18.917,8.859 18.857,8.581 18.761,8.29 V 7.998 C 18.567,7.465 18.445,7.005 18.397,6.617" /></g><g
           transform="translate(196.8931,218.5635)"
           id="g56"><path
             id="path58"
             style="fill:#414042;fill-opacity:1;fill-rule:nonzero;stroke:none"
             d="M 0,0 16.724,-32.794 H 8.508 l -13.38,26.249 -6.617,-8.871 v -17.378 h -7.708 v 53.226 h 7.708 V -3.709 L 6.253,20.432 h 8.871 z" /></g><g
           transform="translate(251.8643,196.8213)"
           id="g60"><path
             id="path62"
             style="fill:#414042;fill-opacity:1;fill-rule:nonzero;stroke:none"
             d="M 0,0 H 19.051 L 9.526,24.433 Z M -12.216,-11.053 9.526,42.248 31.268,-11.053 h -7.926 l -1.6,4.218 h -24.36 l -1.672,-4.218 z" /></g><g
           transform="translate(326.9053,192.5312)"
           id="g64"><path
             id="path66"
             style="fill:#414042;fill-opacity:1;fill-rule:nonzero;stroke:none"
             d="m 0,0 c 2.714,0 5.21,0.522 7.49,1.566 2.278,1.044 4.24,2.465 5.89,4.262 1.647,1.797 2.931,3.897 3.854,6.3 0.919,2.405 1.381,4.967 1.381,7.687 0,2.72 -0.462,5.28 -1.381,7.685 -0.923,2.404 -2.218,4.503 -3.891,6.3 -1.672,1.799 -3.648,3.22 -5.926,4.263 C 5.138,39.107 2.665,39.629 0,39.629 H -9.962 V 0 Z m 0.873,46.464 c 3.586,0 6.944,-0.703 10.071,-2.109 3.126,-1.406 5.852,-3.32 8.179,-5.743 2.328,-2.424 4.17,-5.248 5.527,-8.471 1.357,-3.225 2.036,-6.679 2.036,-10.363 0,-3.685 -0.654,-7.138 -1.963,-10.361 C 23.414,6.192 21.608,3.382 19.305,0.982 17.003,-1.417 14.276,-3.321 11.125,-4.726 7.974,-6.133 4.556,-6.835 0.873,-6.835 h -18.615 v 53.299 z" /></g><g
           transform="translate(420.416,239.0684)"
           id="g68"><path
             id="path70"
             style="fill:#414042;fill-opacity:1;fill-rule:nonzero;stroke:none"
             d="m 0,0 v -0.072 l -16.506,-35.922 v -17.45 -0.074 h -7.781 v 0.074 17.45 l -16.506,35.922 h 0.073 L -40.793,0 h 8.653 L -20.359,-28.503 -8.581,0 Z" /></g><g
           transform="translate(458.6641,196.8213)"
           id="g72"><path
             id="path74"
             style="fill:#414042;fill-opacity:1;fill-rule:nonzero;stroke:none"
             d="M 0,0 H 19.05 L 9.524,24.433 Z M -12.217,-11.053 9.524,42.248 31.266,-11.053 H 23.341 L 21.74,-6.835 H -2.618 l -1.673,-4.218 z" /></g><g
           transform="translate(545.1934,212.2363)"
           id="g76"><path
             id="path78"
             style="fill:#414042;fill-opacity:1;fill-rule:nonzero;stroke:none"
             d="m 0,0 c 0.338,-0.243 0.654,-0.521 0.944,-0.836 0.291,-0.315 0.558,-0.618 0.8,-0.908 1.115,-1.407 1.987,-2.945 2.619,-4.617 0.628,-1.674 0.945,-3.431 0.945,-5.273 0,-0.435 -0.025,-0.776 -0.073,-1.016 -0.144,-2.718 -0.969,-5.164 -2.471,-7.346 -1.359,-2.035 -3.105,-3.648 -5.236,-4.835 -2.134,-1.189 -4.508,-1.781 -7.127,-1.781 h -4.798 c -2.618,0 -4.995,0.592 -7.126,1.781 -2.134,1.187 -3.879,2.8 -5.236,4.835 -0.388,0.581 -0.775,1.261 -1.163,2.036 l 6.763,5.236 c 0.143,-0.922 0.446,-1.782 0.908,-2.582 0.459,-0.799 1.029,-1.503 1.708,-2.109 0.68,-0.606 1.455,-1.079 2.328,-1.418 0.871,-0.339 1.792,-0.509 2.763,-0.509 h 2.908 c 1.987,0 3.708,0.643 5.163,1.927 1.454,1.284 2.326,2.872 2.617,4.765 0,0.191 0.011,0.386 0.036,0.581 0.025,0.192 0.038,0.386 0.038,0.582 0,1.064 -0.195,2.059 -0.581,2.979 -0.389,0.921 -0.922,1.734 -1.6,2.437 -0.681,0.702 -1.481,1.272 -2.401,1.709 -0.92,0.436 -1.89,0.678 -2.908,0.726 h -4.144 -0.291 c -1.794,0.048 -3.481,0.401 -5.055,1.055 -1.576,0.654 -2.992,1.538 -4.253,2.654 -0.681,0.485 -1.262,1.067 -1.746,1.745 -1.114,1.406 -1.987,2.947 -2.618,4.618 -0.63,1.672 -0.944,3.429 -0.944,5.271 v 1.02 c 0.242,2.762 1.09,5.21 2.545,7.343 1.355,2.036 3.101,3.647 5.236,4.835 2.132,1.189 4.507,1.782 7.126,1.782 h 4.725 c 2.619,0 5.005,-0.593 7.163,-1.782 2.157,-1.188 3.915,-2.799 5.271,-4.835 0.146,-0.244 0.304,-0.508 0.473,-0.799 0.17,-0.292 0.329,-0.559 0.472,-0.8 l -6.616,-5.163 c -0.435,1.745 -1.357,3.199 -2.764,4.363 -1.406,1.163 -3.03,1.744 -4.872,1.744 h -2.908 c -0.97,0 -1.903,-0.17 -2.799,-0.508 -0.897,-0.341 -1.684,-0.812 -2.364,-1.419 -0.679,-0.606 -1.249,-1.322 -1.708,-2.144 -0.462,-0.824 -0.765,-1.698 -0.908,-2.617 -0.05,-0.196 -0.073,-0.39 -0.073,-0.583 v -0.581 c 0,-1.068 0.192,-2.062 0.582,-2.982 0.386,-0.922 0.919,-1.734 1.599,-2.435 0.678,-0.704 1.478,-1.274 2.4,-1.709 0.92,-0.438 1.889,-0.681 2.908,-0.728 h 4.144 0.292 C -7.515,3.66 -5.83,3.31 -4.254,2.655 -2.68,2 -1.261,1.115 0,0" /></g><g
           transform="translate(56.9902,196.8213)"
           id="g80"><path
             id="path82"
             style="fill:#414042;fill-opacity:1;fill-rule:nonzero;stroke:none"
             d="M 0,0 H 19.051 L 9.526,24.433 Z M -12.216,-11.053 9.526,42.248 31.268,-11.053 h -7.926 l -1.6,4.218 h -24.36 l -1.672,-4.218 z" /></g></g></g></g></svg>