<?xml version="1.0" encoding="UTF-8"?>
<!DOCTYPE svg PUBLIC "-//W3C//DTD SVG 1.1//EN" "http://www.w3.org/Graphics/SVG/1.1/DTD/svg11.dtd">
<!-- Creator: CorelDRAW X7 -->
<svg xmlns="http://www.w3.org/2000/svg" xml:space="preserve" width="140.013mm" height="26.1863mm" version="1.1" style="shape-rendering:geometricPrecision; text-rendering:geometricPrecision; image-rendering:optimizeQuality; fill-rule:evenodd; clip-rule:evenodd" viewBox="0 0 14001 2619" xmlns:xlink="http://www.w3.org/1999/xlink" data-ember-extension="1">
 <defs>
  <style type="text/css">
   <![CDATA[
    .fil0 {fill:url(#id0);fill-rule:nonzero}
   ]]>
  </style>
  <linearGradient id="id0" gradientUnits="userSpaceOnUse" x1="7000.69" y1="2618.64" x2="7000.69" y2="-0.01">
   <stop offset="0" style="stop-opacity:1; stop-color:#009970"/>
   <stop offset="1" style="stop-opacity:1; stop-color:#0071C2"/>
  </linearGradient>
 </defs>
 <g id="Katman_x0020_1">
  <metadata id="CorelCorpID_0Corel-Layer"/>
  <path class="fil0" d="M11571 995l-345 1624 2255 0 135 -644 -1459 0 86 -396 1238 0 128 -584c-680,0 -1359,0 -2038,0zm-6769 -995l-1899 0 -625 0 -261 0c-66,0 -119,54 -119,119l0 0c0,66 53,119 119,119l210 0 0 0 223 0c66,0 119,54 119,119l0 0c0,66 -53,119 -119,119l-274 0 -947 0c-65,0 -119,54 -119,119l0 0c0,66 54,119 119,119l897 0 0 0 594 0c65,0 119,54 119,119l0 0c0,66 -54,119 -119,119l-645 0 -58 0c-66,0 -119,54 -119,119l0 0c0,66 53,119 119,119l7 0 0 0 371 0c65,0 119,54 119,119l0 0c0,66 -54,119 -119,119l-421 0 0 0 -1855 0c-65,0 -119,54 -119,119l0 0c0,66 54,119 119,119l1804 0 578 0 56 0c65,0 119,54 119,119l0 0c0,66 -54,119 -119,119l-123 0 -562 0 -681 0c-65,0 -119,54 -119,119l0 1c0,65 54,119 119,119l631 0 364 0c65,0 119,53 119,119l0 0c0,65 -54,119 -119,119l-415 0 -127 0c-66,0 -119,53 -119,119l0 0c0,65 53,119 119,119l76 0 482 0 659 0 214 -1010 1223 0 131 -614 -1223 0 74 -340 1380 0 142 -655zm-3385 0l231 0c65,0 119,54 119,119l0 0c0,65 -54,119 -119,119l-231 0c-65,0 -119,-53 -119,-119l0 0c0,-65 54,-119 119,-119zm-624 2381l501 0c66,0 119,53 119,119l0 0c0,65 -53,119 -119,119l-501 0c-65,0 -119,-54 -119,-119l0 0c0,-66 54,-119 119,-119zm-51 -1429l927 0c66,0 119,54 119,119l0 0c0,66 -53,119 -119,119l-927 0c-65,0 -119,-53 -119,-119l0 0c0,-65 54,-119 119,-119zm5400 -952l-1145 0 -139 651c422,0 843,0 1265,0 164,0 265,51 265,155 0,118 -95,189 -338,189 -421,0 -841,0 -1262,0l-348 1624 815 0 219 -1018 228 0 324 1018 890 0 -387 -1130c888,-238 992,-1489 -387,-1489zm1848 2619l557 -2619 -815 0 -558 2619 816 0zm1388 -614l103 -501 572 0c142,0 243,63 243,202 0,131 -137,299 -417,299l-501 0zm1311 -797c374,-112 552,-310 552,-632 0,-370 -330,-576 -861,-576l-1391 0 -131 614c421,0 843,0 1264,0 165,0 266,56 266,172 0,131 -95,209 -338,209 -425,0 -849,0 -1274,0l-345 1624 1452 0c942,0 1210,-588 1210,-917 0,-239 -142,-408 -404,-494zm3312 -1208l-2218 0 -137 643c739,0 1478,0 2217,0l138 -643z"/>
 </g>
</svg>